<?xml version="1.0" encoding="UTF-8" standalone="no"?>
<!DOCTYPE svg PUBLIC "-//W3C//DTD SVG 1.1//EN" "http://www.w3.org/Graphics/SVG/1.1/DTD/svg11.dtd">
<svg version="1.1" xmlns="http://www.w3.org/2000/svg" xmlns:xlink="http://www.w3.org/1999/xlink" preserveAspectRatio="xMidYMid meet" viewBox="-1.000230572711427 -0.7107892049084839 125.99950052794468 105.42092681996068" width="122" height="101.42"><defs><path d="M21.16 89.96C20.04 90.92 18.35 90.79 17.4 89.67C5.82 76.15 -0.13 60.86 0 45.37C0.13 30.27 6.04 15.05 18.15 1.2C19.12 0.09 20.8 -0.02 21.91 0.95C23.02 1.92 23.13 3.6 22.16 4.71C10.93 17.56 5.45 31.58 5.33 45.41C5.21 59.6 10.72 73.68 21.45 86.2C21.45 86.2 21.45 86.2 21.45 86.2C22 88.07 21.9 89.33 21.16 89.96ZM35.19 76.96C34.09 77.94 32.41 77.83 31.43 76.73C22.53 66.67 17.98 56.01 18.16 45.2C18.34 34.68 22.99 24.17 32.48 14.1C33.49 13.03 35.18 12.97 36.25 13.98C37.32 14.99 37.37 16.68 36.36 17.76C27.83 26.82 23.64 36.12 23.49 45.29C23.33 54.71 27.42 64.16 35.42 73.2C35.42 73.2 35.42 73.2 35.42 73.2C36 75.06 35.93 76.31 35.19 76.96ZM47.41 64.57C46.27 65.5 44.59 65.33 43.66 64.19C38.87 58.28 36.37 51.88 36.35 45.38C36.33 39.03 38.68 32.68 43.56 26.7C44.49 25.56 46.17 25.39 47.31 26.32C48.45 27.25 48.63 28.93 47.7 30.07C43.62 35.06 41.66 40.26 41.68 45.38C41.69 50.62 43.78 55.88 47.8 60.82C47.8 60.82 47.8 60.82 47.8 60.82C48.31 62.7 48.18 63.95 47.41 64.57ZM100.84 89.96C99.72 89.01 99.59 87.32 100.55 86.2C111.28 73.68 116.79 59.6 116.67 45.41C116.55 31.58 111.07 17.56 99.84 4.71C98.87 3.6 98.98 1.92 100.09 0.95C101.2 -0.02 102.88 0.09 103.85 1.2C115.95 15.05 121.87 30.27 122 45.37C122.13 60.86 116.18 76.15 104.6 89.67C104.6 89.67 104.6 89.67 104.6 89.67C102.84 90.51 101.59 90.6 100.84 89.96ZM86.81 76.96C85.71 75.99 85.6 74.3 86.58 73.2C94.58 64.16 98.67 54.71 98.52 45.29C98.36 36.12 94.17 26.81 85.64 17.75C84.63 16.68 84.68 14.99 85.75 13.98C86.82 12.97 88.51 13.03 89.52 14.1C99.01 24.17 103.66 34.68 103.84 45.2C104.02 56 99.47 66.67 90.57 76.73C90.57 76.73 90.57 76.73 90.57 76.73C88.79 77.53 87.54 77.61 86.81 76.96ZM74.59 64.57C73.44 63.65 73.27 61.97 74.2 60.82C78.22 55.88 80.31 50.62 80.32 45.38C80.34 40.26 78.38 35.06 74.3 30.07C73.37 28.93 73.55 27.25 74.69 26.32C75.83 25.39 77.51 25.56 78.44 26.71C83.32 32.68 85.67 39.03 85.65 45.38C85.63 51.88 83.13 58.28 78.34 64.19C78.34 64.19 78.34 64.19 78.34 64.19C76.6 65.06 75.35 65.19 74.59 64.57ZM63.67 99.04C63.67 100.51 62.48 101.71 61 101.71C59.52 101.71 58.33 100.51 58.33 99.04C58.33 94.64 58.33 59.51 58.33 55.12C56.63 54.65 55.12 53.75 53.91 52.54C52.09 50.73 50.97 48.22 50.97 45.45C50.97 42.68 52.09 40.17 53.91 38.35C55.72 36.53 58.23 35.41 61 35.41C63.78 35.41 66.28 36.53 68.1 38.35C69.92 40.17 71.04 42.68 71.04 45.45C71.04 48.22 69.92 50.73 68.1 52.54C66.89 53.75 65.37 54.66 63.67 55.12C63.67 55.12 63.67 55.12 63.67 55.12C63.67 81.47 63.67 96.11 63.67 99.04Z" id="d3io25XUaA"></path></defs><g><g><use xlink:href="#d3io25XUaA" opacity="1" fill="#2ef50d" fill-opacity="1"></use><g><use xlink:href="#d3io25XUaA" opacity="1" fill-opacity="0" stroke="#000000" stroke-width="1" stroke-opacity="0"></use></g></g></g></svg>